<?xml version="1.0" encoding="utf-8"?>
<!-- Generator: Adobe Illustrator 16.2.0, SVG Export Plug-In . SVG Version: 6.00 Build 0)  -->
<!DOCTYPE svg PUBLIC "-//W3C//DTD SVG 1.1//EN" "http://www.w3.org/Graphics/SVG/1.1/DTD/svg11.dtd">
<svg version="1.1" id="图层_1" xmlns="http://www.w3.org/2000/svg" xmlns:xlink="http://www.w3.org/1999/xlink" x="0px" y="0px"
	 width="423px" height="341px" viewBox="0 0 423 341" enable-background="new 0 0 423 341" xml:space="preserve">
<title>Group 4</title>
<desc>Created with Sketch.</desc>
<g id="Ant-Design-Pro-3.0">
	<g id="_x34_04" transform="translate(-484.000000, -221.000000)">
		<g id="Group-4" transform="translate(464.000000, 222.000000)">
			<g id="Group-5" transform="translate(75.417348, 0.163879)" opacity="0.6">
				<path id="Stroke-1" fill="none" stroke="#A3B1BF" stroke-width="1.62" stroke-linejoin="round" stroke-dasharray="12.15" d="
					M169.575,288.891c-65.928,0-119.374-53.436-119.374-119.351s53.446-119.35,119.374-119.35
					c65.93,0,119.374,53.435,119.374,119.35S235.505,288.891,169.575,288.891z"/>
				<path id="Stroke-3" fill="none" stroke="#A3B1BF" stroke-width="1.62" stroke-linejoin="round" stroke-dasharray="12.15" d="
					M169.406,338.555c-93.378,0-169.077-75.682-169.077-169.042c0-93.359,75.698-169.042,169.077-169.042
					c93.378,0,169.076,75.683,169.076,169.042C338.482,262.873,262.784,338.555,169.406,338.555z"/>
			</g>
			<polygon id="Fill-6" fill="#F5F5F5" points="98.617,195.401 118.895,194.35 104.052,208.2 			"/>
			<polygon id="Stroke-7" fill="none" stroke="#A3B1BF" stroke-width="1.62" stroke-linejoin="round" points="98.617,195.401 
				118.895,194.35 104.052,208.2 			"/>
			<polygon id="Fill-8" fill="none" points="42.038,207.973 62.29,199.379 75.954,231.562 55.703,240.156 			"/>
			<polygon id="Stroke-9" fill="none" stroke="#A3B1BF" stroke-width="1.62" stroke-linejoin="round" points="42.038,207.973 
				62.29,199.379 75.954,231.562 55.703,240.156 			"/>
			<polygon id="Fill-10" fill="#F5F5F5" points="58.867,192.414 63.864,190.294 83.585,236.741 78.588,238.861 			"/>
			<polygon id="Stroke-11" fill="#F0F2F5" stroke="#A3B1BF" stroke-width="1.62" stroke-linejoin="round" points="58.867,192.414 
				63.864,190.294 83.585,236.741 78.588,238.861 			"/>
			<polygon id="Fill-12" fill="none" points="63.485,250.004 82.237,242.047 105.911,297.803 87.16,305.76 			"/>
			<polygon id="Stroke-13" fill="none" stroke="#A3B1BF" stroke-width="1.62" stroke-linejoin="round" points="63.485,250.004 
				82.237,242.047 105.911,297.803 87.16,305.76 			"/>
			<polygon id="Fill-14" fill="none" points="68.068,200.195 71.531,198.727 82.844,225.369 79.381,226.838 			"/>
			<polygon id="Stroke-15" fill="none" stroke="#A3B1BF" stroke-width="1.62" stroke-linejoin="round" points="68.068,200.195 
				71.531,198.727 82.844,225.369 79.381,226.838 			"/>
			<polygon id="Fill-16" fill="#F5F5F5" points="73.783,203.42 81.805,200.016 82.57,201.816 74.548,205.221 			"/>
			<polygon id="Stroke-17" fill="none" stroke="#A3B1BF" stroke-width="1.62" stroke-linejoin="round" points="73.783,203.42 
				81.805,200.016 82.57,201.816 74.548,205.221 			"/>
			<polygon id="Fill-18" fill="#F5F5F5" points="80.284,218.73 88.305,215.326 89.07,217.128 81.048,220.531 			"/>
			<polygon id="Stroke-19" fill="none" stroke="#A3B1BF" stroke-width="1.62" stroke-linejoin="round" points="80.284,218.73 
				88.305,215.326 89.07,217.128 81.048,220.531 			"/>
			<polygon id="Fill-20" fill="none" points="69.437,238.012 72.842,246.033 71.04,246.797 67.634,238.776 			"/>
			<polygon id="Stroke-21" fill="none" stroke="#A3B1BF" stroke-width="1.62" stroke-linejoin="round" points="69.437,238.012 
				72.842,246.033 71.04,246.797 67.634,238.776 			"/>
			<polygon id="Fill-22" fill="none" points="37.433,216.135 42.038,207.973 55.703,240.156 46.631,237.797 			"/>
			<polygon id="Stroke-23" fill="none" stroke="#A3B1BF" stroke-width="1.62" stroke-linejoin="round" points="37.433,216.135 
				42.038,207.973 55.703,240.156 46.631,237.797 			"/>
			<polygon id="Fill-24" fill="none" points="37.433,216.135 31.78,212.324 45.446,244.509 46.631,237.797 			"/>
			<polygon id="Stroke-25" fill="none" stroke="#A3B1BF" stroke-width="1.62" stroke-linejoin="round" points="37.433,216.135 
				31.78,212.324 45.446,244.509 46.631,237.797 			"/>
			<polygon id="Fill-26" fill="none" points="34.117,218.189 28.345,217.025 32.419,226.621 35.59,221.66 			"/>
			<polygon id="Stroke-27" fill="none" stroke="#A3B1BF" stroke-width="1.62" stroke-linejoin="round" points="34.117,218.189 
				28.345,217.025 32.419,226.621 35.59,221.66 			"/>
			<polygon id="Fill-28" fill="none" points="41.375,235.283 35.603,234.119 39.677,243.715 42.848,238.754 			"/>
			<polygon id="Stroke-29" fill="none" stroke="#A3B1BF" stroke-width="1.62" stroke-linejoin="round" points="41.375,235.283 
				35.603,234.119 39.677,243.715 42.848,238.754 			"/>
			<polygon id="Fill-30" fill="#F0F2F5" points="72.498,200.393 74.909,199.37 78.208,207.141 75.797,208.164 			"/>
			<polygon id="Stroke-31" fill="none" stroke="#A3B1BF" stroke-width="1.62" stroke-linejoin="round" points="72.498,200.393 
				74.909,199.37 78.208,207.141 75.797,208.164 			"/>
			<polygon id="Fill-32" fill="#F0F2F5" points="79.017,215.746 81.427,214.723 84.727,222.493 82.316,223.517 			"/>
			<polygon id="Stroke-33" fill="none" stroke="#A3B1BF" stroke-width="1.62" stroke-linejoin="round" points="79.017,215.746 
				81.427,214.723 84.727,222.493 82.316,223.517 			"/>
			<polygon id="Fill-34" fill="none" points="65.41,236.037 69.011,234.51 70.66,238.395 67.059,239.922 			"/>
			<polygon id="Stroke-35" fill="#F5F5F5" stroke="#A3B1BF" stroke-width="1.62" stroke-linejoin="round" points="65.41,236.037 
				69.011,234.51 70.66,238.395 67.059,239.922 			"/>
			<path id="Fill-36" fill="#F5F5F5" d="M86.817,208.043c-6.095-14.354-5.144-28.945,1.659-35.517
				c1.125-1.087,3.702-2.908,5.748,1.911c2.045,4.817,19.91,46.891,21.773,51.279s-0.907,5.751-2.468,5.805
				C104.074,231.852,92.912,222.398,86.817,208.043z"/>
			<path id="Stroke-38" fill="#F0F2F5" stroke="#A3B1BF" stroke-width="1.62" stroke-linejoin="round" d="M86.817,208.043
				c-6.095-14.354-5.144-28.945,1.659-35.517c1.125-1.087,3.702-2.908,5.748,1.911c2.045,4.817,19.91,46.891,21.773,51.279
				s-0.907,5.751-2.468,5.805C104.074,231.852,92.912,222.398,86.817,208.043z"/>
			<polygon id="Fill-40" fill="#F0F2F5" points="81.153,198.48 83.564,197.458 92.115,217.598 89.704,218.62 			"/>
			<polygon id="Stroke-42" fill="none" stroke="#A3B1BF" stroke-width="1.62" stroke-linejoin="round" points="81.153,198.48 
				83.564,197.458 92.115,217.598 89.704,218.62 			"/>
			<path id="Fill-44" fill="#A3B1BF" d="M120.73,196.68c-1.456,0.617-3.136-0.062-3.754-1.517c-0.618-1.456,0.062-3.136,1.516-3.753
				c1.456-0.617,3.136,0.062,3.754,1.516C122.864,194.382,122.186,196.063,120.73,196.68"/>
			<polygon id="Fill-46" fill="#A3B1BF" fill-opacity="0.6" points="80.645,249.555 79.752,247.451 81.856,246.559 82.749,248.662 
							"/>
			<polygon id="Stroke-48" fill="none" points="80.645,249.555 79.752,247.451 81.856,246.559 82.749,248.662 			"/>
			<polygon id="Fill-50" fill="#A3B1BF" fill-opacity="0.6" points="82.097,252.974 81.204,250.869 83.308,249.977 84.201,252.08 
							"/>
			<polygon id="Stroke-52" fill="none" points="82.097,252.974 81.204,250.869 83.308,249.977 84.201,252.08 			"/>
			<polygon id="Fill-54" fill="#A3B1BF" fill-opacity="0.6" points="83.548,256.393 82.655,254.289 84.759,253.396 85.652,255.5 			
				"/>
			<polygon id="Stroke-56" fill="none" points="83.548,256.393 82.655,254.289 84.759,253.396 85.652,255.5 			"/>
			<polygon id="Fill-58" fill="#A3B1BF" fill-opacity="0.6" points="85,259.811 84.107,257.707 86.211,256.814 87.104,258.918 			
				"/>
			<polygon id="Stroke-60" fill="none" points="85,259.811 84.107,257.707 86.211,256.814 87.104,258.918 			"/>
			<polygon id="Fill-62" fill="#A3B1BF" fill-opacity="0.6" points="77.489,250.895 76.596,248.791 78.7,247.897 79.593,250.002 			
				"/>
			<polygon id="Stroke-64" fill="none" points="77.489,250.895 76.596,248.791 78.7,247.897 79.593,250.002 			"/>
			<polygon id="Fill-66" fill="#A3B1BF" fill-opacity="0.6" points="78.941,254.313 78.047,252.209 80.151,251.316 81.044,253.42 
							"/>
			<polygon id="Stroke-68" fill="none" points="78.941,254.313 78.047,252.209 80.151,251.316 81.044,253.42 			"/>
			<polygon id="Fill-70" fill="#A3B1BF" fill-opacity="0.6" points="80.393,257.731 79.499,255.628 81.603,254.734 82.496,256.839 
							"/>
			<polygon id="Stroke-72" fill="none" points="79.499,255.628 81.603,254.734 82.496,256.839 80.393,257.731 			"/>
			<polygon id="Fill-74" fill="#A3B1BF" fill-opacity="0.6" points="81.844,261.15 80.951,259.047 83.055,258.154 83.948,260.258 
							"/>
			<polygon id="Stroke-76" fill="none" points="81.844,261.15 80.951,259.047 83.055,258.154 83.948,260.258 			"/>
			<polygon id="Fill-78" fill="#A3B1BF" fill-opacity="0.6" points="74.333,252.233 73.44,250.129 75.544,249.236 76.437,251.34 			
				"/>
			<polygon id="Stroke-80" fill="none" points="74.333,252.233 73.44,250.129 75.544,249.236 76.437,251.34 			"/>
			<polygon id="Fill-82" fill="#A3B1BF" fill-opacity="0.6" points="75.785,255.652 74.892,253.549 76.995,252.656 77.889,254.76 
							"/>
			<polygon id="Stroke-84" fill="none" points="75.785,255.652 74.892,253.549 76.995,252.656 77.889,254.76 			"/>
			<polygon id="Fill-86" fill="#A3B1BF" fill-opacity="0.6" points="77.236,259.07 76.343,256.967 78.447,256.074 79.34,258.178 			
				"/>
			<polygon id="Stroke-88" fill="none" points="77.236,259.07 76.343,256.967 78.447,256.074 79.34,258.178 			"/>
			<polygon id="Fill-90" fill="#A3B1BF" fill-opacity="0.6" points="78.688,262.49 77.794,260.387 79.898,259.493 80.792,261.598 
							"/>
			<polygon id="Stroke-92" fill="none" points="78.688,262.49 77.794,260.387 79.898,259.493 80.792,261.598 			"/>
			<polygon id="Fill-94" fill="#A3B1BF" fill-opacity="0.6" points="71.177,253.572 70.284,251.469 72.388,250.576 73.281,252.68 
							"/>
			<polygon id="Stroke-96" fill="none" points="71.177,253.572 70.284,251.469 72.388,250.576 73.281,252.68 			"/>
			<polygon id="Fill-98" fill="#A3B1BF" fill-opacity="0.6" points="72.628,256.992 71.735,254.888 73.839,253.995 74.732,256.099 
							"/>
			<polygon id="Stroke-100" fill="none" points="72.628,256.992 71.735,254.888 73.839,253.995 74.732,256.099 			"/>
			<polygon id="Fill-102" fill="#A3B1BF" fill-opacity="0.6" points="74.08,260.41 73.187,258.307 75.291,257.414 76.184,259.518 
							"/>
			<polygon id="Stroke-104" fill="none" points="74.08,260.41 73.187,258.307 75.291,257.414 76.184,259.518 			"/>
			<polygon id="Fill-106" fill="#A3B1BF" fill-opacity="0.6" points="75.532,263.829 74.639,261.725 76.743,260.832 77.636,262.936 
							"/>
			<polygon id="Stroke-108" fill="none" points="75.532,263.829 74.639,261.725 76.743,260.832 77.636,262.936 			"/>
			<polygon id="Fill-110" fill="#A3B1BF" fill-opacity="0.6" points="68.021,254.912 67.127,252.809 69.231,251.916 70.125,254.02 
							"/>
			<polygon id="Stroke-112" fill="none" points="68.021,254.912 67.127,252.809 69.231,251.916 70.125,254.02 			"/>
			<polygon id="Fill-114" fill="#A3B1BF" fill-opacity="0.6" points="69.473,258.33 68.579,256.227 70.683,255.334 71.576,257.438 
							"/>
			<polygon id="Stroke-116" fill="none" points="69.473,258.33 68.579,256.227 70.683,255.334 71.576,257.438 			"/>
			<polygon id="Fill-118" fill="#A3B1BF" fill-opacity="0.6" points="70.924,261.75 70.031,259.646 72.135,258.753 73.028,260.857 
							"/>
			<polygon id="Stroke-120" fill="none" points="70.924,261.75 70.031,259.646 72.135,258.753 73.028,260.857 			"/>
			<polygon id="Fill-122" fill="#A3B1BF" fill-opacity="0.6" points="72.375,265.168 71.482,263.064 73.586,262.172 74.479,264.275 
							"/>
			<polygon id="Stroke-124" fill="none" points="72.375,265.168 71.482,263.064 73.586,262.172 74.479,264.275 			"/>
			<polygon id="Fill-126" fill="#A3B1BF" fill-opacity="0.6" points="88.248,267.459 87.354,265.355 89.458,264.463 90.352,266.566 
							"/>
			<polygon id="Stroke-128" fill="none" points="88.248,267.459 87.354,265.355 89.458,264.463 90.352,266.566 			"/>
			<polygon id="Fill-130" fill="#A3B1BF" fill-opacity="0.6" points="89.699,270.879 88.806,268.775 90.91,267.882 91.803,269.986 
							"/>
			<polygon id="Stroke-132" fill="none" points="89.699,270.879 88.806,268.775 90.91,267.882 91.803,269.986 			"/>
			<polygon id="Fill-134" fill="#A3B1BF" fill-opacity="0.6" points="91.151,274.297 90.258,272.193 92.361,271.301 93.255,273.404 
							"/>
			<polygon id="Stroke-136" fill="none" points="91.151,274.297 90.258,272.193 92.361,271.301 93.255,273.404 			"/>
			<polygon id="Fill-138" fill="#A3B1BF" fill-opacity="0.6" points="92.603,277.717 91.709,275.612 93.813,274.72 94.706,276.823 
							"/>
			<polygon id="Stroke-140" fill="none" points="92.603,277.717 91.709,275.612 93.813,274.72 94.706,276.823 			"/>
			<polygon id="Fill-142" fill="#A3B1BF" fill-opacity="0.6" points="85.091,268.799 84.198,266.695 86.302,265.803 87.195,267.906 
							"/>
			<polygon id="Stroke-144" fill="none" points="85.091,268.799 84.198,266.695 86.302,265.803 87.195,267.906 			"/>
			<polygon id="Fill-146" fill="#A3B1BF" fill-opacity="0.6" points="86.543,272.218 85.65,270.113 87.754,269.221 88.647,271.324 
							"/>
			<polygon id="Stroke-148" fill="none" points="86.543,272.218 85.65,270.113 87.754,269.221 88.647,271.324 			"/>
			<polygon id="Fill-150" fill="#A3B1BF" fill-opacity="0.6" points="87.995,275.637 87.102,273.533 89.205,272.641 90.099,274.744 
							"/>
			<polygon id="Stroke-152" fill="none" points="87.995,275.637 87.102,273.533 89.205,272.641 90.099,274.744 			"/>
			<polygon id="Fill-154" fill="#A3B1BF" fill-opacity="0.6" points="89.446,279.055 88.553,276.951 90.657,276.059 91.55,278.162 
							"/>
			<polygon id="Stroke-156" fill="none" points="89.446,279.055 88.553,276.951 90.657,276.059 91.55,278.162 			"/>
			<polygon id="Fill-158" fill="#A3B1BF" fill-opacity="0.6" points="81.936,270.139 81.042,268.035 83.146,267.142 84.039,269.246 
							"/>
			<polygon id="Stroke-160" fill="none" points="81.936,270.139 81.042,268.035 83.146,267.142 84.039,269.246 			"/>
			<polygon id="Fill-162" fill="#A3B1BF" fill-opacity="0.6" points="83.387,273.557 82.494,271.453 84.598,270.561 85.491,272.664 
							"/>
			<polygon id="Stroke-164" fill="none" points="83.387,273.557 82.494,271.453 84.598,270.561 85.491,272.664 			"/>
			<polygon id="Fill-166" fill="#A3B1BF" fill-opacity="0.6" points="84.838,276.977 83.945,274.872 86.049,273.979 86.942,276.083 
							"/>
			<polygon id="Stroke-168" fill="none" points="84.838,276.977 83.945,274.872 86.049,273.979 86.942,276.083 			"/>
			<polygon id="Fill-170" fill="#A3B1BF" fill-opacity="0.6" points="86.29,280.395 85.397,278.291 87.501,277.398 88.394,279.502 
							"/>
			<polygon id="Stroke-172" fill="none" points="86.29,280.395 85.397,278.291 87.501,277.398 88.394,279.502 			"/>
			<polygon id="Fill-174" fill="#A3B1BF" fill-opacity="0.6" points="78.779,271.478 77.886,269.374 79.99,268.48 80.883,270.584 
							"/>
			<polygon id="Stroke-176" fill="none" points="78.779,271.478 77.886,269.374 79.99,268.48 80.883,270.584 			"/>
			<polygon id="Fill-178" fill="#A3B1BF" fill-opacity="0.6" points="80.231,274.896 79.338,272.793 81.441,271.9 82.335,274.004 
							"/>
			<polygon id="Stroke-180" fill="none" points="80.231,274.896 79.338,272.793 81.441,271.9 82.335,274.004 			"/>
			<polygon id="Fill-182" fill="#A3B1BF" fill-opacity="0.6" points="81.683,278.314 80.789,276.211 82.893,275.318 83.786,277.422 
							"/>
			<polygon id="Stroke-184" fill="none" points="81.683,278.314 80.789,276.211 82.893,275.318 83.786,277.422 			"/>
			<polygon id="Fill-186" fill="#A3B1BF" fill-opacity="0.6" points="83.134,281.734 82.241,279.631 84.345,278.737 85.238,280.842 
							"/>
			<polygon id="Stroke-188" fill="none" points="83.134,281.734 82.241,279.631 84.345,278.737 85.238,280.842 			"/>
			<polygon id="Fill-190" fill="#A3B1BF" fill-opacity="0.6" points="75.623,272.816 74.73,270.713 76.834,269.82 77.727,271.924 
							"/>
			<polygon id="Stroke-192" fill="none" points="75.623,272.816 74.73,270.713 76.834,269.82 77.727,271.924 			"/>
			<polygon id="Fill-194" fill="#A3B1BF" fill-opacity="0.6" points="77.075,276.236 76.182,274.132 78.286,273.239 79.179,275.343 
							"/>
			<polygon id="Stroke-196" fill="none" points="77.075,276.236 76.182,274.132 78.286,273.239 79.179,275.343 			"/>
			<polygon id="Fill-198" fill="#A3B1BF" fill-opacity="0.6" points="78.526,279.654 77.633,277.551 79.737,276.658 80.63,278.762 
							"/>
			<polygon id="Stroke-200" fill="none" points="78.526,279.654 77.633,277.551 79.737,276.658 80.63,278.762 			"/>
			<polygon id="Fill-202" fill="#A3B1BF" fill-opacity="0.6" points="79.978,283.073 79.085,280.97 81.188,280.076 82.082,282.181 
							"/>
			<polygon id="Stroke-204" fill="none" points="79.978,283.073 79.085,280.97 81.188,280.076 82.082,282.181 			"/>
			<polygon id="Fill-206" fill="#A3B1BF" fill-opacity="0.6" points="95.85,285.365 94.957,283.261 97.061,282.368 97.954,284.472 
							"/>
			<polygon id="Stroke-208" fill="none" points="95.85,285.365 94.957,283.261 97.061,282.368 97.954,284.472 			"/>
			<polygon id="Fill-210" fill="#A3B1BF" fill-opacity="0.6" points="97.301,288.783 96.408,286.68 98.512,285.787 99.405,287.891 
							"/>
			<polygon id="Stroke-212" fill="none" points="97.301,288.783 96.408,286.68 98.512,285.787 99.405,287.891 			"/>
			<polygon id="Fill-214" fill="#A3B1BF" fill-opacity="0.6" points="98.753,292.202 97.86,290.098 99.964,289.205 100.857,291.309 
							"/>
			<polygon id="Stroke-216" fill="none" points="98.753,292.202 97.86,290.098 99.964,289.205 100.857,291.309 			"/>
			<polygon id="Fill-218" fill="#A3B1BF" fill-opacity="0.6" points="100.205,295.621 99.312,293.518 101.416,292.625 
				102.309,294.729 			"/>
			<polygon id="Stroke-220" fill="none" points="100.205,295.621 99.312,293.518 101.416,292.625 102.309,294.729 			"/>
			<polygon id="Fill-222" fill="#A3B1BF" fill-opacity="0.6" points="92.694,286.703 91.801,284.6 93.904,283.707 94.798,285.811 
							"/>
			<polygon id="Stroke-224" fill="none" points="92.694,286.703 91.801,284.6 93.904,283.707 94.798,285.811 			"/>
			<polygon id="Fill-226" fill="#A3B1BF" fill-opacity="0.6" points="94.146,290.123 93.252,288.02 95.356,287.126 96.25,289.23 			
				"/>
			<polygon id="Stroke-228" fill="none" points="94.146,290.123 93.252,288.02 95.356,287.126 96.25,289.23 			"/>
			<polygon id="Fill-230" fill="#A3B1BF" fill-opacity="0.6" points="95.597,293.541 94.704,291.438 96.808,290.545 97.701,292.648 
							"/>
			<polygon id="Stroke-232" fill="none" points="95.597,293.541 94.704,291.438 96.808,290.545 97.701,292.648 			"/>
			<polygon id="Fill-234" fill="#A3B1BF" fill-opacity="0.6" points="97.049,296.961 96.155,294.856 98.259,293.964 99.152,296.067 
							"/>
			<polygon id="Stroke-236" fill="none" points="97.049,296.961 96.155,294.856 98.259,293.964 99.152,296.067 			"/>
			<polygon id="Fill-238" fill="#A3B1BF" fill-opacity="0.6" points="89.538,288.043 88.645,285.939 90.749,285.047 91.642,287.15 
							"/>
			<polygon id="Stroke-240" fill="none" points="89.538,288.043 88.645,285.939 90.749,285.047 91.642,287.15 			"/>
			<polygon id="Fill-242" fill="#A3B1BF" fill-opacity="0.6" points="90.989,291.462 90.096,289.358 92.2,288.465 93.093,290.568 
							"/>
			<polygon id="Stroke-244" fill="none" points="90.989,291.462 90.096,289.358 92.2,288.465 93.093,290.568 			"/>
			<polygon id="Fill-246" fill="#A3B1BF" fill-opacity="0.6" points="92.441,294.881 91.548,292.777 93.651,291.885 94.545,293.988 
							"/>
			<polygon id="Stroke-248" fill="none" points="92.441,294.881 91.548,292.777 93.651,291.885 94.545,293.988 			"/>
			<polygon id="Fill-250" fill="#A3B1BF" fill-opacity="0.6" points="93.893,298.299 93,296.195 95.103,295.303 95.997,297.406 			
				"/>
			<polygon id="Stroke-252" fill="none" points="93.893,298.299 93,296.195 95.103,295.303 95.997,297.406 			"/>
			<polygon id="Fill-254" fill="#A3B1BF" fill-opacity="0.6" points="86.382,289.383 85.488,287.279 87.592,286.386 88.485,288.49 
							"/>
			<polygon id="Stroke-256" fill="none" points="86.382,289.383 85.488,287.279 87.592,286.386 88.485,288.49 			"/>
			<polygon id="Fill-258" fill="#A3B1BF" fill-opacity="0.6" points="87.833,292.801 86.94,290.697 89.044,289.805 89.937,291.908 
							"/>
			<polygon id="Stroke-260" fill="none" points="87.833,292.801 86.94,290.697 89.044,289.805 89.937,291.908 			"/>
			<polygon id="Fill-262" fill="#A3B1BF" fill-opacity="0.6" points="89.285,296.221 88.392,294.117 90.496,293.224 91.389,295.327 
							"/>
			<polygon id="Stroke-264" fill="none" points="89.285,296.221 88.392,294.117 90.496,293.224 91.389,295.327 			"/>
			<polygon id="Fill-266" fill="#A3B1BF" fill-opacity="0.6" points="90.736,299.639 89.843,297.535 91.947,296.643 92.84,298.746 
							"/>
			<polygon id="Stroke-268" fill="none" points="90.736,299.639 89.843,297.535 91.947,296.643 92.84,298.746 			"/>
			<polygon id="Fill-270" fill="#A3B1BF" fill-opacity="0.6" points="83.226,290.722 82.333,288.618 84.436,287.725 85.33,289.829 
							"/>
			<polygon id="Stroke-272" fill="none" points="82.333,288.618 84.436,287.725 85.33,289.829 83.226,290.722 			"/>
			<polygon id="Fill-274" fill="#A3B1BF" fill-opacity="0.6" points="84.677,294.141 83.784,292.037 85.888,291.145 86.781,293.248 
							"/>
			<polygon id="Stroke-276" fill="none" points="84.677,294.141 83.784,292.037 85.888,291.145 86.781,293.248 			"/>
			<polygon id="Fill-278" fill="#A3B1BF" fill-opacity="0.6" points="86.129,297.56 85.235,295.455 87.339,294.563 88.232,296.666 
							"/>
			<polygon id="Stroke-280" fill="none" points="86.129,297.56 85.235,295.455 87.339,294.563 88.232,296.666 			"/>
			<polygon id="Fill-282" fill="#A3B1BF" fill-opacity="0.6" points="87.58,300.979 86.687,298.875 88.791,297.982 89.684,300.086 
							"/>
			<polygon id="Stroke-284" fill="none" points="87.58,300.979 86.687,298.875 88.791,297.982 89.684,300.086 			"/>
			<polygon id="Fill-286" fill="none" points="40.241,195.26 58.993,187.303 35.319,131.545 16.567,139.503 			"/>
			<polygon id="Fill-290" fill="none" points="53.004,199.311 49.599,191.289 47.796,192.054 51.202,200.075 			"/>
			<polygon id="Stroke-292" fill="none" stroke="#A3B1BF" stroke-width="1.62" stroke-linejoin="round" points="53.004,199.311 
				49.599,191.289 47.796,192.054 51.202,200.075 			"/>
			<polygon id="Fill-294" fill="#A3B1BF" fill-opacity="0.8" points="51.628,203.578 55.229,202.05 53.579,198.165 49.979,199.693 
							"/>
			<polygon id="Stroke-296" fill="#FFFFFF" stroke="#A3B1BF" stroke-width="1.62" stroke-linejoin="round" points="51.628,203.578 
				55.229,202.05 53.579,198.165 49.979,199.693 			"/>
			<polygon id="Fill-298" fill="#A3B1BF" fill-opacity="0.8" points="52.485,183.231 53.378,185.335 55.482,184.442 54.588,182.338 
							"/>
			<polygon id="Stroke-300" fill="none" points="52.485,183.231 53.378,185.335 55.482,184.442 54.588,182.338 			"/>
			<polygon id="Fill-302" fill="#A3B1BF" fill-opacity="0.8" points="51.033,179.813 51.926,181.916 54.03,181.023 53.137,178.92 
							"/>
			<polygon id="Stroke-304" fill="none" points="51.033,179.813 51.926,181.916 54.03,181.023 53.137,178.92 			"/>
			<polygon id="Fill-306" fill="#A3B1BF" fill-opacity="0.8" points="49.582,176.394 50.475,178.498 52.579,177.604 51.686,175.501 
							"/>
			<polygon id="Stroke-308" fill="none" points="49.582,176.394 50.475,178.498 52.579,177.604 51.686,175.501 			"/>
			<polygon id="Fill-310" fill="#A3B1BF" fill-opacity="0.8" points="48.13,172.975 49.023,175.078 51.127,174.186 50.234,172.082 
							"/>
			<polygon id="Stroke-312" fill="none" points="48.13,172.975 49.023,175.078 51.127,174.186 50.234,172.082 			"/>
			<polygon id="Fill-314" fill="#A3B1BF" fill-opacity="0.8" points="49.329,184.57 50.222,186.674 52.326,185.781 51.433,183.678 
							"/>
			<polygon id="Stroke-316" fill="none" points="49.329,184.57 50.222,186.674 52.326,185.781 51.433,183.678 			"/>
			<polygon id="Fill-318" fill="#A3B1BF" fill-opacity="0.8" points="47.877,181.152 48.77,183.256 50.874,182.363 49.981,180.26 
							"/>
			<polygon id="Stroke-320" fill="none" points="47.877,181.152 48.77,183.256 50.874,182.363 49.981,180.26 			"/>
			<polygon id="Fill-322" fill="#A3B1BF" fill-opacity="0.8" points="46.425,177.732 47.319,179.837 49.422,178.943 48.529,176.84 
							"/>
			<polygon id="Stroke-324" fill="none" points="46.425,177.732 47.319,179.837 49.422,178.943 48.529,176.84 			"/>
			<polygon id="Fill-326" fill="#A3B1BF" fill-opacity="0.8" points="44.974,174.314 45.867,176.418 47.971,175.525 47.078,173.422 
							"/>
			<polygon id="Stroke-328" fill="none" points="44.974,174.314 45.867,176.418 47.971,175.525 47.078,173.422 			"/>
			<polygon id="Fill-330" fill="#A3B1BF" fill-opacity="0.8" points="46.172,185.91 47.066,188.014 49.169,187.121 48.276,185.018 
							"/>
			<polygon id="Stroke-332" fill="none" points="46.172,185.91 47.066,188.014 49.169,187.121 48.276,185.018 			"/>
			<polygon id="Fill-334" fill="#A3B1BF" fill-opacity="0.8" points="44.721,182.491 45.614,184.595 47.718,183.702 46.825,181.598 
							"/>
			<polygon id="Stroke-336" fill="none" points="44.721,182.491 45.614,184.595 47.718,183.702 46.825,181.598 			"/>
			<polygon id="Fill-338" fill="#A3B1BF" fill-opacity="0.8" points="43.269,179.072 44.163,181.176 46.267,180.283 45.373,178.18 
							"/>
			<polygon id="Stroke-340" fill="none" points="43.269,179.072 44.163,181.176 46.267,180.283 45.373,178.18 			"/>
			<polygon id="Fill-342" fill="#A3B1BF" fill-opacity="0.8" points="41.818,175.653 42.711,177.758 44.815,176.864 43.921,174.761 
							"/>
			<polygon id="Stroke-344" fill="none" points="41.818,175.653 42.711,177.758 44.815,176.864 43.921,174.761 			"/>
			<polygon id="Fill-346" fill="#A3B1BF" fill-opacity="0.8" points="43.017,187.25 43.91,189.354 46.014,188.461 45.12,186.356 			
				"/>
			<polygon id="Stroke-348" fill="none" points="43.017,187.25 43.91,189.354 46.014,188.461 45.12,186.356 			"/>
			<polygon id="Fill-350" fill="#A3B1BF" fill-opacity="0.8" points="41.565,183.83 42.458,185.934 44.562,185.041 43.668,182.938 
							"/>
			<polygon id="Stroke-352" fill="none" points="41.565,183.83 42.458,185.934 44.562,185.041 43.668,182.938 			"/>
			<polygon id="Fill-354" fill="#A3B1BF" fill-opacity="0.8" points="40.113,180.412 41.006,182.516 43.11,181.623 42.217,179.52 
							"/>
			<polygon id="Stroke-356" fill="none" points="40.113,180.412 41.006,182.516 43.11,181.623 42.217,179.52 			"/>
			<polygon id="Fill-358" fill="#A3B1BF" fill-opacity="0.8" points="38.662,176.992 39.555,179.097 41.659,178.203 40.766,176.1 
							"/>
			<polygon id="Stroke-360" fill="none" points="38.662,176.992 39.555,179.097 41.659,178.203 40.766,176.1 			"/>
			<polygon id="Fill-362" fill="#A3B1BF" fill-opacity="0.8" points="39.86,188.588 40.753,190.692 42.857,189.799 41.964,187.695 
							"/>
			<polygon id="Stroke-364" fill="none" points="39.86,188.588 40.753,190.692 42.857,189.799 41.964,187.695 			"/>
			<polygon id="Fill-366" fill="#A3B1BF" fill-opacity="0.8" points="38.409,185.17 39.302,187.273 41.406,186.381 40.513,184.277 
							"/>
			<polygon id="Stroke-368" fill="none" points="38.409,185.17 39.302,187.273 41.406,186.381 40.513,184.277 			"/>
			<polygon id="Fill-370" fill="#A3B1BF" fill-opacity="0.8" points="36.957,181.751 37.85,183.854 39.954,182.962 39.061,180.857 
							"/>
			<polygon id="Stroke-372" fill="none" points="36.957,181.751 37.85,183.854 39.954,182.962 39.061,180.857 			"/>
			<polygon id="Fill-374" fill="#A3B1BF" fill-opacity="0.8" points="35.505,178.332 36.398,180.436 38.502,179.543 37.609,177.439 
							"/>
			<polygon id="Stroke-376" fill="none" points="35.505,178.332 36.398,180.436 38.502,179.543 37.609,177.439 			"/>
			<polygon id="Fill-378" fill="#A3B1BF" fill-opacity="0.8" points="44.882,165.327 45.775,167.43 47.879,166.538 46.986,164.434 
							"/>
			<polygon id="Stroke-380" fill="none" points="44.882,165.327 45.775,167.43 47.879,166.538 46.986,164.434 			"/>
			<polygon id="Fill-382" fill="#A3B1BF" fill-opacity="0.8" points="43.431,161.908 44.324,164.011 46.428,163.119 45.535,161.015 
							"/>
			<polygon id="Stroke-384" fill="none" points="43.431,161.908 44.324,164.011 46.428,163.119 45.535,161.015 			"/>
			<polygon id="Fill-386" fill="#A3B1BF" fill-opacity="0.8" points="41.979,158.489 42.873,160.592 44.976,159.7 44.083,157.596 
							"/>
			<polygon id="Stroke-388" fill="none" points="41.979,158.489 42.873,160.592 44.976,159.7 44.083,157.596 			"/>
			<polygon id="Fill-390" fill="#A3B1BF" fill-opacity="0.8" points="40.527,155.07 41.421,157.174 43.524,156.281 42.631,154.177 
							"/>
			<polygon id="Stroke-392" fill="none" points="40.527,155.07 41.421,157.174 43.524,156.281 42.631,154.177 			"/>
			<polygon id="Fill-394" fill="#A3B1BF" fill-opacity="0.8" points="41.726,166.666 42.62,168.77 44.723,167.876 43.83,165.773 			
				"/>
			<polygon id="Stroke-396" fill="none" points="41.726,166.666 42.62,168.77 44.723,167.876 43.83,165.773 			"/>
			<polygon id="Fill-398" fill="#A3B1BF" fill-opacity="0.8" points="40.275,163.247 41.168,165.351 43.272,164.458 42.378,162.354 
							"/>
			<polygon id="Stroke-400" fill="none" points="40.275,163.247 41.168,165.351 43.272,164.458 42.378,162.354 			"/>
			<polygon id="Fill-402" fill="#A3B1BF" fill-opacity="0.8" points="38.823,159.828 39.716,161.932 41.82,161.039 40.927,158.935 
							"/>
			<polygon id="Stroke-404" fill="none" points="38.823,159.828 39.716,161.932 41.82,161.039 40.927,158.935 			"/>
			<polygon id="Fill-406" fill="#A3B1BF" fill-opacity="0.8" points="37.372,156.409 38.265,158.513 40.369,157.62 39.475,155.517 
							"/>
			<polygon id="Stroke-408" fill="none" points="37.372,156.409 38.265,158.513 40.369,157.62 39.475,155.517 			"/>
			<polygon id="Fill-410" fill="#A3B1BF" fill-opacity="0.8" points="38.57,168.005 39.463,170.109 41.567,169.216 40.674,167.112 
							"/>
			<polygon id="Stroke-412" fill="none" points="38.57,168.005 39.463,170.109 41.567,169.216 40.674,167.112 			"/>
			<polygon id="Fill-414" fill="#A3B1BF" fill-opacity="0.8" points="37.119,164.586 38.012,166.69 40.116,165.797 39.223,163.693 
							"/>
			<polygon id="Stroke-416" fill="none" points="37.119,164.586 38.012,166.69 40.116,165.797 39.223,163.693 			"/>
			<polygon id="Fill-418" fill="#A3B1BF" fill-opacity="0.8" points="35.667,161.167 36.56,163.271 38.664,162.378 37.771,160.274 
							"/>
			<polygon id="Stroke-420" fill="none" points="35.667,161.167 36.56,163.271 38.664,162.378 37.771,160.274 			"/>
			<polygon id="Fill-422" fill="#A3B1BF" fill-opacity="0.8" points="34.215,157.749 35.108,159.853 37.212,158.959 36.319,156.856 
							"/>
			<polygon id="Stroke-424" fill="none" points="34.215,157.749 35.108,159.853 37.212,158.959 36.319,156.856 			"/>
			<polygon id="Fill-426" fill="#A3B1BF" fill-opacity="0.8" points="35.414,169.344 36.307,171.448 38.411,170.555 37.518,168.452 
							"/>
			<polygon id="Stroke-428" fill="none" points="35.414,169.344 36.307,171.448 38.411,170.555 37.518,168.452 			"/>
			<polygon id="Fill-430" fill="#A3B1BF" fill-opacity="0.8" points="33.962,165.925 34.856,168.029 36.959,167.136 36.066,165.033 
							"/>
			<polygon id="Stroke-432" fill="none" points="33.962,165.925 34.856,168.029 36.959,167.136 36.066,165.033 			"/>
			<polygon id="Fill-434" fill="#A3B1BF" fill-opacity="0.8" points="32.511,162.507 33.404,164.61 35.508,163.718 34.615,161.614 
							"/>
			<polygon id="Stroke-436" fill="none" points="32.511,162.507 33.404,164.61 35.508,163.718 34.615,161.614 			"/>
			<polygon id="Fill-438" fill="#A3B1BF" fill-opacity="0.8" points="31.059,159.088 31.953,161.192 34.056,160.299 33.163,158.195 
							"/>
			<polygon id="Stroke-440" fill="none" points="31.059,159.088 31.953,161.192 34.056,160.299 33.163,158.195 			"/>
			<polygon id="Fill-442" fill="#A3B1BF" fill-opacity="0.8" points="32.258,170.684 33.151,172.787 35.255,171.895 34.362,169.791 
							"/>
			<polygon id="Stroke-444" fill="none" points="32.258,170.684 33.151,172.787 35.255,171.895 34.362,169.791 			"/>
			<polygon id="Fill-446" fill="#A3B1BF" fill-opacity="0.8" points="30.807,167.265 31.7,169.369 33.804,168.476 32.91,166.372 			
				"/>
			<polygon id="Stroke-448" fill="none" points="30.807,167.265 31.7,169.369 33.804,168.476 32.91,166.372 			"/>
			<polygon id="Fill-450" fill="#A3B1BF" fill-opacity="0.8" points="29.355,163.846 30.248,165.95 32.352,165.057 31.458,162.953 
							"/>
			<polygon id="Stroke-452" fill="none" points="29.355,163.846 30.248,165.95 32.352,165.057 31.458,162.953 			"/>
			<polygon id="Fill-454" fill="#A3B1BF" fill-opacity="0.8" points="27.903,160.427 28.796,162.531 30.9,161.638 30.007,159.535 
							"/>
			<polygon id="Stroke-456" fill="none" points="27.903,160.427 28.796,162.531 30.9,161.638 30.007,159.535 			"/>
			<polygon id="Fill-458" fill="#A3B1BF" fill-opacity="0.8" points="37.28,147.421 38.173,149.525 40.277,148.632 39.384,146.529 
							"/>
			<polygon id="Stroke-460" fill="none" points="37.28,147.421 38.173,149.525 40.277,148.632 39.384,146.529 			"/>
			<polygon id="Fill-462" fill="#A3B1BF" fill-opacity="0.8" points="35.829,144.002 36.722,146.106 38.826,145.213 37.932,143.11 
							"/>
			<polygon id="Stroke-464" fill="none" points="35.829,144.002 36.722,146.106 38.826,145.213 37.932,143.11 			"/>
			<polygon id="Fill-466" fill="#A3B1BF" fill-opacity="0.8" points="34.377,140.584 35.27,142.688 37.374,141.795 36.481,139.691 
							"/>
			<polygon id="Stroke-468" fill="none" points="34.377,140.584 35.27,142.688 37.374,141.795 36.481,139.691 			"/>
			<polygon id="Fill-470" fill="#A3B1BF" fill-opacity="0.8" points="32.925,137.165 33.818,139.269 35.922,138.376 35.029,136.272 
							"/>
			<polygon id="Stroke-472" fill="#B2BECA" points="33.818,139.269 35.922,138.376 35.029,136.272 32.925,137.165 			"/>
			<polygon id="Fill-474" fill="#A3B1BF" fill-opacity="0.8" points="34.124,148.761 35.017,150.865 37.121,149.972 36.228,147.868 
							"/>
			<polygon id="Stroke-476" fill="none" points="34.124,148.761 35.017,150.865 37.121,149.972 36.228,147.868 			"/>
			<polygon id="Fill-478" fill="#A3B1BF" fill-opacity="0.8" points="32.672,145.342 33.565,147.446 35.669,146.553 34.776,144.449 
							"/>
			<polygon id="Stroke-480" fill="none" points="32.672,145.342 33.565,147.446 35.669,146.553 34.776,144.449 			"/>
			<polygon id="Fill-482" fill="#A3B1BF" fill-opacity="0.8" points="31.221,141.923 32.114,144.027 34.218,143.134 33.325,141.03 
							"/>
			<polygon id="Stroke-484" fill="none" points="31.221,141.923 32.114,144.027 34.218,143.134 33.325,141.03 			"/>
			<polygon id="Fill-486" fill="#A3B1BF" fill-opacity="0.8" points="29.769,138.504 30.662,140.608 32.766,139.715 31.873,137.612 
							"/>
			<polygon id="Stroke-488" fill="none" points="29.769,138.504 30.662,140.608 32.766,139.715 31.873,137.612 			"/>
			<polygon id="Fill-490" fill="#A3B1BF" fill-opacity="0.8" points="30.968,150.1 31.861,152.204 33.965,151.311 33.072,149.208 
							"/>
			<polygon id="Stroke-492" fill="none" points="30.968,150.1 31.861,152.204 33.965,151.311 33.072,149.208 			"/>
			<polygon id="Fill-494" fill="#A3B1BF" fill-opacity="0.8" points="29.516,146.681 30.41,148.785 32.513,147.892 31.62,145.789 
							"/>
			<polygon id="Stroke-496" fill="none" points="29.516,146.681 30.41,148.785 32.513,147.892 31.62,145.789 			"/>
			<polygon id="Fill-498" fill="#A3B1BF" fill-opacity="0.8" points="28.064,143.263 28.958,145.366 31.062,144.474 30.168,142.37 
							"/>
			<polygon id="Stroke-500" fill="none" points="28.064,143.263 28.958,145.366 31.062,144.474 30.168,142.37 			"/>
			<polygon id="Fill-502" fill="#A3B1BF" fill-opacity="0.8" points="26.613,139.844 27.506,141.947 29.61,141.055 28.717,138.951 
							"/>
			<polygon id="Stroke-504" fill="none" points="26.613,139.844 27.506,141.947 29.61,141.055 28.717,138.951 			"/>
			<polygon id="Fill-506" fill="#A3B1BF" fill-opacity="0.8" points="27.812,151.439 28.705,153.543 30.809,152.65 29.916,150.546 
							"/>
			<polygon id="Stroke-508" fill="none" points="27.812,151.439 28.705,153.543 30.809,152.65 29.916,150.546 			"/>
			<polygon id="Fill-510" fill="#A3B1BF" fill-opacity="0.8" points="26.36,148.021 27.253,150.125 29.357,149.231 28.464,147.128 
							"/>
			<polygon id="Stroke-512" fill="none" points="26.36,148.021 27.253,150.125 29.357,149.231 28.464,147.128 			"/>
			<polygon id="Fill-514" fill="#A3B1BF" fill-opacity="0.8" points="24.909,144.602 25.802,146.706 27.906,145.813 27.013,143.709 
							"/>
			<polygon id="Stroke-516" fill="none" points="24.909,144.602 25.802,146.706 27.906,145.813 27.013,143.709 			"/>
			<polygon id="Fill-518" fill="#A3B1BF" fill-opacity="0.8" points="23.457,141.183 24.35,143.287 26.454,142.394 25.561,140.29 
							"/>
			<polygon id="Stroke-520" fill="none" points="23.457,141.183 24.35,143.287 26.454,142.394 25.561,140.29 			"/>
			<polygon id="Fill-522" fill="#A3B1BF" fill-opacity="0.8" points="24.656,152.779 25.549,154.882 27.653,153.99 26.76,151.886 
							"/>
			<polygon id="Stroke-524" fill="none" points="24.656,152.779 25.549,154.882 27.653,153.99 26.76,151.886 			"/>
			<polygon id="Fill-526" fill="#A3B1BF" fill-opacity="0.8" points="23.204,149.36 24.097,151.463 26.201,150.571 25.308,148.467 
							"/>
			<polygon id="Stroke-528" fill="none" points="23.204,149.36 24.097,151.463 26.201,150.571 25.308,148.467 			"/>
			<polygon id="Fill-530" fill="#A3B1BF" fill-opacity="0.8" points="21.752,145.941 22.646,148.045 24.75,147.152 23.856,145.048 
							"/>
			<polygon id="Stroke-532" fill="none" points="21.752,145.941 22.646,148.045 24.75,147.152 23.856,145.048 			"/>
			<polygon id="Fill-534" fill="#A3B1BF" fill-opacity="0.8" points="20.301,142.522 21.194,144.626 23.298,143.733 22.405,141.629 
							"/>
			<polygon id="Stroke-536" fill="none" points="20.301,142.522 21.194,144.626 23.298,143.733 22.405,141.629 			"/>
			<path id="Fill-538" fill="#F5F5F5" d="M128.976,189.439c-1.625-3.83-2.289-7.213-1.481-7.555
				c0.808-0.344,2.781,2.483,4.408,6.313c1.625,3.83,2.289,7.213,1.481,7.557C132.575,196.096,130.603,193.27,128.976,189.439z"/>
			<path id="Stroke-540" fill="none" stroke="#A3B1BF" stroke-width="1.62" stroke-linejoin="round" d="M128.976,189.439
				c-1.625-3.83-2.289-7.213-1.481-7.555c0.808-0.344,2.781,2.483,4.408,6.313c1.625,3.83,2.289,7.213,1.481,7.557
				C132.575,196.096,130.603,193.27,128.976,189.439z"/>
			<path id="Fill-542" fill="#F5F5F5" d="M135.406,186.711c-3.249-7.652-4.575-14.412-2.96-15.097
				c1.614-0.685,5.557,4.964,8.806,12.616c3.25,7.652,4.575,14.412,2.961,15.097S138.656,194.363,135.406,186.711z"/>
			<path id="Stroke-544" fill="none" stroke="#A3B1BF" stroke-width="1.62" stroke-linejoin="round" d="M135.406,186.711
				c-3.249-7.652-4.575-14.412-2.96-15.097c1.614-0.685,5.557,4.964,8.806,12.616c3.25,7.652,4.575,14.412,2.961,15.097
				S138.656,194.363,135.406,186.711z"/>
			<path id="Fill-546" fill="#F5F5F5" fill-opacity="0.35" d="M145.79,182.305c-4.354-10.256-6.131-19.313-3.968-20.232
				c2.163-0.918,7.447,6.652,11.801,16.908c4.354,10.256,6.131,19.313,3.968,20.231C155.427,200.131,150.144,192.561,145.79,182.305
				z"/>
			<path id="Stroke-548" fill="none" stroke="#A3B1BF" stroke-width="1.62" stroke-linejoin="round" d="M145.79,182.305
				c-4.354-10.256-6.131-19.313-3.968-20.232c2.163-0.918,7.447,6.652,11.801,16.908c4.354,10.256,6.131,19.313,3.968,20.231
				C155.427,200.131,150.144,192.561,145.79,182.305z"/>
			<path id="Oval-80-Copy-3" opacity="0.85" fill="#A3B1BF" fill-opacity="0.4" enable-background="new    " d="M64.715,89.559
				c-2.537-1.139-4.219-2.493-3.935-3.272c0.283-0.779,2.438-0.736,5.109,0.02c1.131-2.536,2.462-4.223,3.214-3.95
				c0.752,0.274,0.687,2.422-0.077,5.091c2.532,1.138,4.21,2.491,3.927,3.269c-0.284,0.779-2.443,0.736-5.119-0.022
				c-1.12,2.472-2.422,4.105-3.163,3.836C63.932,94.261,63.984,92.173,64.715,89.559z"/>
			<path id="Star-1-Copy-16" fill="#A3B1BF" fill-opacity="0.4" d="M118.775,329.141l-0.351,0.386
				c-0.902,0.993-2.439,1.065-3.433,0.163c-0.395-0.359-0.661-0.839-0.756-1.365l-0.093-0.512l-0.474-0.213
				c-1.224-0.553-1.769-1.99-1.217-3.215c0.22-0.486,0.594-0.889,1.065-1.141l0.458-0.247l0.057-0.519
				c0.146-1.334,1.347-2.297,2.681-2.149c0.531,0.058,1.028,0.29,1.415,0.659l0.376,0.36l0.509-0.106
				c1.314-0.271,2.601,0.572,2.874,1.886c0.109,0.523,0.042,1.067-0.19,1.55l-0.226,0.468l0.258,0.452
				c0.666,1.165,0.26,2.649-0.905,3.314c-0.464,0.266-1.002,0.37-1.532,0.299L118.775,329.141z"/>
			<path id="Star-1-Copy-18" fill="#A3B1BF" fill-opacity="0.4" d="M432.965,120.001L432.965,120.001L432.965,120.001
				c-0.724,0.43-1.658,0.192-2.088-0.531c-0.171-0.288-0.242-0.625-0.203-0.957l0,0l0,0l0,0c-0.632-0.555-0.695-1.517-0.141-2.149
				c0.221-0.252,0.519-0.424,0.848-0.489l0,0l0,0l0,0c0.333-0.773,1.229-1.13,2.002-0.798c0.308,0.132,0.563,0.362,0.727,0.655l0,0
				l0,0l0,0c0.838,0.077,1.454,0.819,1.377,1.656c-0.03,0.333-0.171,0.648-0.397,0.894l0,0l0,0l0,0
				c0.185,0.82-0.33,1.636-1.15,1.821C433.611,120.178,433.27,120.142,432.965,120.001L432.965,120.001z"/>
			<path id="Star-1-Copy-19" fill="#A3B1BF" fill-opacity="0.4" d="M98.26,38.509l-0.833,0.128l0,0
				c-1.327,0.204-2.567-0.707-2.771-2.033c-0.081-0.528,0.015-1.068,0.271-1.537l0.405-0.738l-0.379-0.751l0,0
				c-0.604-1.198-0.122-2.66,1.077-3.263c0.477-0.241,1.021-0.317,1.546-0.217l0.827,0.157l0.599-0.593l0,0
				c0.954-0.944,2.492-0.937,3.437,0.016c0.376,0.38,0.617,0.873,0.684,1.403l0.107,0.836l0.749,0.386l0,0
				c1.193,0.615,1.662,2.081,1.046,3.273c-0.245,0.475-0.639,0.856-1.123,1.084l-0.761,0.359l-0.136,0.831l0,0
				c-0.216,1.325-1.465,2.223-2.79,2.007c-0.527-0.086-1.012-0.343-1.378-0.732L98.26,38.509z"/>
			<path id="Star-1-Copy-20" fill="#A3B1BF" fill-opacity="0.4" d="M396.631,305.744l-0.533-0.136
				c-1.3-0.331-2.086-1.653-1.756-2.954c0.132-0.518,0.431-0.978,0.851-1.309l0.431-0.34l-0.035-0.547
				c-0.088-1.34,0.927-2.496,2.267-2.584c0.533-0.035,1.063,0.107,1.508,0.404l0.456,0.305l0.511-0.203
				c1.247-0.498,2.66,0.111,3.157,1.357c0.198,0.496,0.227,1.044,0.082,1.559l-0.149,0.529l0.351,0.422
				c0.858,1.031,0.717,2.564-0.315,3.422c-0.411,0.342-0.923,0.539-1.457,0.56l-0.548,0.021l-0.293,0.464
				c-0.717,1.135-2.218,1.475-3.353,0.758c-0.452-0.285-0.797-0.711-0.982-1.213L396.631,305.744z"/>
			<path id="Star-1-Copy-21" fill="#A3B1BF" fill-opacity="0.4" d="M440.263,146.294L440.263,146.294L440.263,146.294
				c-0.647,0.538-1.607,0.449-2.146-0.198c-0.214-0.257-0.337-0.579-0.351-0.913l0,0l0,0l0,0c-0.711-0.449-0.924-1.39-0.475-2.101
				c0.179-0.284,0.446-0.5,0.76-0.616l0.001,0l0,0l0,0c0.207-0.815,1.036-1.308,1.852-1.101c0.325,0.083,0.613,0.27,0.82,0.533l0,0
				h0.001l0,0c0.839-0.055,1.563,0.581,1.618,1.42c0.022,0.334-0.067,0.667-0.253,0.945l0,0l0,0l0,0
				c0.312,0.781-0.069,1.667-0.851,1.979C440.929,146.367,440.586,146.385,440.263,146.294L440.263,146.294z"/>
			<path id="Oval-8-Copy-2" fill="#A3B1BF" fill-opacity="0.66" d="M244.622,220.613c32.538,0,58.914-26.371,58.914-58.902
				s-26.376-58.902-58.914-58.902c-32.538,0-58.915,26.371-58.915,58.902S212.084,220.613,244.622,220.613z"/>
			<path id="Oval-8-Copy-2_1_" fill="#FAFAFA" d="M223.262,133.14c5.815-3.357,16.37-7.312,13.012-13.126
				c-3.357-5.814-15.708-4.97-21.523-1.613c-5.815,3.357-12.02,13.223-8.663,19.038C209.445,143.253,217.446,136.497,223.262,133.14
				"/>
			<path id="Oval-10-Copy" fill="#FAFAFA" d="M249.68,119.821c2.686,0,4.863-2.177,4.863-4.863s-2.178-4.863-4.863-4.863
				c-2.688,0-4.864,2.177-4.864,4.863S246.992,119.821,249.68,119.821z"/>
			<path id="Line-2" fill="none" stroke="#979797" stroke-linecap="square" d="M421.5,321.5l1.5,1.5"/>
		</g>
	</g>
</g>
<text transform="matrix(1 0 0 1 188.6665 184.5156)" fill="#FFFFFF" font-family="'SimHei'" font-size="48">404</text>
</svg>
